<?xml version="1.0" encoding="utf-8"?>
<!-- Svg Vector Icons : http://www.onlinewebfonts.com/icon -->
<!DOCTYPE svg PUBLIC "-//W3C//DTD SVG 1.1//EN" "http://www.w3.org/Graphics/SVG/1.1/DTD/svg11.dtd">
<svg version="1.1" xmlns="http://www.w3.org/2000/svg" xmlns:xlink="http://www.w3.org/1999/xlink" x="0px" y="0px" viewBox="0 0 1000 1000" enable-background="new 0 0 1000 1000" xml:space="preserve">
<metadata> Svg Vector Icons : http://www.onlinewebfonts.com/icon </metadata>
<g><g transform="translate(0.000000,511.000000) scale(0.100000,-0.100000)"><path d="M5986.8,2331.9c-2021.3-660.1-3763.5-1227.3-3872.4-1259l-197.4-61.2l-798.5,356.1c-437.8,195.1-821.2,353.9-853,353.9c-29.5,0-79.4-25-108.9-56.7l-56.7-54.5V179.1v-1431.4l56.7-54.4c29.5-31.8,81.7-56.7,113.4-56.7c34,0,390.2,183.7,855.2,442.4c437.8,242.7,803.1,442.4,814.4,442.4c20.4,0,1277.2-408.3,1288.5-419.7c2.3-4.5-74.9-256.3-176.9-560.3c-102.1-304-183.8-578.5-183.8-610.2c0-31.7,22.7-79.4,52.2-104.3c59-54.5,3303-1141.1,3405.1-1141.1c36.3,0,83.9,15.9,106.6,36.3c22.7,20.4,124.8,288.1,226.9,596.6c102.1,306.3,192.8,567.1,204.2,578.5c11.3,11.3,605.7-170.1,1422.4-435.5c773.6-251.8,1426.9-458.2,1454.1-458.2c27.2,0,74.9,24.9,104.3,56.7l56.7,54.4V269.9v3155.5l-56.7,54.5c-34,36.3-79.4,56.7-118,54.4C9691.3,3534.2,8008,2992.1,5986.8,2331.9z M9532.5-1145.7l-6.8-1415.5L5737.3-1327.2C3652.5-648.9,1930.7-93.1,1908-93.1c-22.7,0-353.9-172.4-735-385.6C791.9-692,476.6-864.4,472-864.4c-4.5,0-9.1,474.1-9.1,1054.9c0,580.7,9.1,1054.9,18.1,1054.9c9.1,0,326.7-138.4,705.5-306.3c378.8-167.9,705.5-306.3,725.9-306.3c20.4,0,1740,555.8,3824.7,1234.1L9525.7,3101l6.8-1415.6C9534.8,907.3,9534.8-367.6,9532.5-1145.7z M5068.1-1490.5c791.7-258.6,1442.8-471.8,1447.3-474.1c4.5-4.5-310.8-923.3-322.1-934.6c-9.1-11.3-2876.5,948.2-2899.2,966.4c-24.9,22.7,274.5,909.7,306.3,909.7C3613.9-1023.2,4274.1-1234.2,5068.1-1490.5z"/></g></g>
</svg>